<svg xmlns="http://www.w3.org/2000/svg" width="503.848" height="90.432" viewBox="0 0 503.848 90.432">
  <g id="Group_1022" data-name="Group 1022" transform="translate(-21976.152 -3537)">
    <path id="Path_7141" data-name="Path 7141" d="M123.264-1.44h2.16V0H95.472V-1.3h2.16a5.243,5.243,0,0,0,3.816-1.656,4.539,4.539,0,0,0,1.368-3.96L95.328-66.24,68.112-12.672a61.972,61.972,0,0,0-5.04,14.688h-1.44l-34.7-66.96L20.448-6.912a4.54,4.54,0,0,0,1.368,3.888A5.294,5.294,0,0,0,25.776-1.3h2.016V0H1.152V-1.44h2.16a9.591,9.591,0,0,0,8.064-3.744A8.748,8.748,0,0,0,13.1-9.648L24.336-88.416h1.44L63.792-15.264l36.72-73.152h1.3L113.472-9.36a8.844,8.844,0,0,0,3.312,5.76A10.144,10.144,0,0,0,123.264-1.44ZM157.1-82.728a52.683,52.683,0,0,1,24.408-5.688,52.683,52.683,0,0,1,24.408,5.688,44.484,44.484,0,0,1,17.64,16.056A43.008,43.008,0,0,1,230.112-43.2a43.008,43.008,0,0,1-6.552,23.472A44.484,44.484,0,0,1,205.92-3.672a49.3,49.3,0,0,1-22.752,5.688A59.019,59.019,0,0,1,162.576-1.3a47.551,47.551,0,0,1-15.48-9.216,42.609,42.609,0,0,1-10.368-14.4,48.317,48.317,0,0,1-3.816-19.944,40.2,40.2,0,0,1,6.552-21.816A44.484,44.484,0,0,1,157.1-82.728ZM154.44-13.752a35.725,35.725,0,0,0,27,11.448,35.954,35.954,0,0,0,27.072-11.448Q219.456-25.2,219.456-43.2T208.512-72.648A35.954,35.954,0,0,0,181.44-84.1a35.725,35.725,0,0,0-27,11.448Q143.568-61.2,143.568-43.2T154.44-13.752Zm91.08,9a36.02,36.02,0,0,1-.432-7.056,33.222,33.222,0,0,1,1.872-10.8h1.728a23.456,23.456,0,0,0-.144,2.592,17,17,0,0,0,5.112,12.744Q258.768-2.3,267.84-2.3q9.5,0,14.832-4.392A14.058,14.058,0,0,0,288-18.072a14.852,14.852,0,0,0-5.184-11.592l-28.8-22.176q-6.912-5.9-6.912-15.84a18.617,18.617,0,0,1,3.1-10.368,21.8,21.8,0,0,1,8.64-7.56,28.5,28.5,0,0,1,13.032-2.808,60.728,60.728,0,0,1,13.248,1.3h4.752l.288,15.7h-1.584q0-6.048-4.176-9.36T272.448-84.1q-7.776,0-12.816,3.96a12.42,12.42,0,0,0-5.04,10.224q0,6.264,5.616,10.872L289.3-36.576q6.624,5.472,6.624,15.264A21.566,21.566,0,0,1,288.5-4.752a25.839,25.839,0,0,1-18.072,6.768A59.136,59.136,0,0,1,256.32.288Q249.264-1.44,245.52-4.752Zm66.528,0a36.023,36.023,0,0,1-.432-7.056,33.222,33.222,0,0,1,1.872-10.8h1.728a23.459,23.459,0,0,0-.144,2.592,17,17,0,0,0,5.112,12.744Q325.3-2.3,334.368-2.3q9.5,0,14.832-4.392a14.058,14.058,0,0,0,5.328-11.376,14.852,14.852,0,0,0-5.184-11.592l-28.8-22.176q-6.912-5.9-6.912-15.84a18.617,18.617,0,0,1,3.1-10.368,21.8,21.8,0,0,1,8.64-7.56A28.5,28.5,0,0,1,338.4-88.416a60.728,60.728,0,0,1,13.248,1.3H356.4l.288,15.7H355.1q0-6.048-4.176-9.36T338.976-84.1q-7.776,0-12.816,3.96a12.42,12.42,0,0,0-5.04,10.224q0,6.264,5.616,10.872l29.088,22.464q6.624,5.472,6.624,15.264a21.565,21.565,0,0,1-7.416,16.56A25.839,25.839,0,0,1,336.96,2.016,59.136,59.136,0,0,1,322.848.288Q315.792-1.44,312.048-4.752Zm89.568-77.976a52.683,52.683,0,0,1,24.408-5.688,52.683,52.683,0,0,1,24.408,5.688,44.484,44.484,0,0,1,17.64,16.056A43.008,43.008,0,0,1,474.624-43.2a43.008,43.008,0,0,1-6.552,23.472,44.484,44.484,0,0,1-17.64,16.056A49.3,49.3,0,0,1,427.68,2.016,59.019,59.019,0,0,1,407.088-1.3a47.551,47.551,0,0,1-15.48-9.216,42.609,42.609,0,0,1-10.368-14.4,48.317,48.317,0,0,1-3.816-19.944,40.2,40.2,0,0,1,6.552-21.816A44.484,44.484,0,0,1,401.616-82.728Zm-2.664,68.976a35.725,35.725,0,0,0,27,11.448,35.954,35.954,0,0,0,27.072-11.448Q463.968-25.2,463.968-43.2T453.024-72.648A35.954,35.954,0,0,0,425.952-84.1a35.725,35.725,0,0,0-27,11.448Q388.08-61.2,388.08-43.2T398.952-13.752Z" transform="translate(21975 3625.416)" fill="#0f102d"/>
    <circle id="Ellipse_46" data-name="Ellipse 46" cx="10" cy="10" r="10" transform="translate(22460 3607)" fill="#ff4757"/>
  </g>
</svg>
